<?xml version="1.0" standalone="no"?>
<!DOCTYPE svg PUBLIC "-//W3C//DTD SVG 20010904//EN"
 "http://www.w3.org/TR/2001/REC-SVG-20010904/DTD/svg10.dtd">
<svg version="1.0" xmlns="http://www.w3.org/2000/svg"
 width="300.000000pt" height="300.000000pt" viewBox="0 0 300.000000 300.000000"
 preserveAspectRatio="xMidYMid meet">
<metadata>
Created by potrace 1.14, written by Peter Selinger 2001-2017
</metadata>
<g transform="translate(0.000000,300.000000) scale(0.100000,-0.100000)"
fill="#000000" stroke="none">
<path d="M0 1500 l0 -1500 549 0 549 0 -5 158 c-5 137 -4 162 11 184 9 14 14
32 10 41 -8 23 33 87 57 87 11 0 19 7 20 18 0 10 3 12 6 5 6 -17 23 -17 23 0
0 10 22 12 93 10 50 -2 101 1 112 6 35 15 174 51 198 51 12 0 52 8 87 18 61
17 92 34 179 97 22 16 38 22 44 16 5 -5 15 -7 23 -4 8 3 15 -4 18 -19 2 -12 9
-50 15 -84 6 -33 11 -144 11 -246 0 -102 3 -219 6 -261 l7 -77 493 0 494 0 0
1500 0 1500 -1500 0 -1500 0 0 -1500z m1385 881 c-3 -6 6 -6 25 -1 17 5 30 5
30 0 0 -5 9 -7 20 -5 11 2 20 -2 20 -8 0 -8 4 -7 9 2 8 13 12 13 27 0 13 -11
18 -11 21 -2 3 9 10 10 24 3 15 -9 18 -8 13 7 -4 10 6 2 21 -19 15 -20 49 -47
76 -59 34 -16 54 -34 65 -57 9 -19 20 -30 26 -26 6 4 8 3 5 -3 -4 -6 9 -23 28
-37 19 -15 35 -32 35 -38 0 -7 -5 -6 -15 2 -24 20 -18 5 7 -16 14 -13 19 -14
14 -4 -4 8 -1 6 6 -4 7 -11 22 -29 33 -40 11 -12 19 -24 18 -27 -1 -3 23 -30
53 -60 29 -29 54 -60 54 -67 0 -10 -4 -12 -12 -4 -21 17 -104 19 -93 3 3 -6
-19 -9 -52 -8 -39 1 -71 -5 -95 -17 -41 -20 -52 -41 -15 -28 12 5 72 8 133 8
88 -1 116 -4 130 -17 26 -23 68 -44 60 -30 -14 22 20 10 51 -18 20 -18 34 -43
39 -67 4 -22 12 -43 19 -49 13 -11 37 -133 29 -146 -3 -5 -5 -89 -5 -186 0
-98 -5 -196 -11 -218 -38 -152 -174 -344 -310 -436 -31 -22 -61 -39 -65 -39
-4 0 -24 -13 -43 -30 -46 -39 -108 -60 -200 -67 -76 -5 -148 7 -172 30 -20 19
-160 121 -193 141 -16 10 -48 40 -70 66 -22 26 -54 56 -72 68 -48 32 -113 134
-120 187 -7 57 8 59 42 5 77 -123 97 -151 101 -147 3 3 -14 44 -38 91 -36 73
-40 88 -28 96 12 7 10 13 -10 37 -14 15 -27 30 -30 33 -54 50 -109 325 -76
379 4 6 3 11 -2 11 -6 0 -8 9 -5 20 3 11 10 20 15 20 5 0 7 -4 3 -9 -3 -5 -1
-12 4 -15 5 -4 12 -2 15 3 3 5 25 8 48 7 24 0 49 5 57 12 8 8 37 12 75 12 33
-1 88 -1 120 0 l60 1 -31 30 c-47 48 -133 59 -215 27 -35 -13 -86 -2 -69 15 6
6 11 16 11 21 0 6 -5 4 -10 -4 -18 -28 -10 8 11 47 30 57 52 67 151 69 48 2
92 5 98 9 21 13 8 22 -47 34 -32 7 -76 19 -98 26 -22 6 -52 11 -66 11 -21 -1
-25 3 -23 21 3 28 35 83 45 77 9 -5 18 35 24 102 5 63 32 118 89 181 45 50 93
79 118 71 7 -3 31 3 53 13 44 20 69 24 60 10z m-270 -731 c3 -5 1 -10 -4 -10
-6 0 -11 5 -11 10 0 6 2 10 4 10 3 0 8 -4 11 -10z m1226 -206 c13 -15 2 -97
-17 -135 -12 -24 -36 -38 -91 -54 -19 -5 -23 -2 -23 15 0 41 33 151 44 147 17
-6 57 42 55 67 -3 43 3 50 12 12 5 -22 14 -45 20 -52z"/>
<path d="M1756 1720 c-30 -9 -76 -47 -76 -62 0 -12 71 -8 154 9 41 8 95 11
130 8 l61 -6 -55 27 c-60 29 -162 41 -214 24z"/>
<path d="M1280 1229 c13 -47 44 -71 75 -59 14 5 30 7 37 5 23 -9 78 -13 78 -6
0 18 -87 61 -124 61 -22 0 -47 7 -57 16 -17 16 -18 15 -9 -17z"/>
<path d="M1613 1233 c9 -2 25 -2 35 0 9 3 1 5 -18 5 -19 0 -27 -2 -17 -5z"/>
<path d="M1768 1053 c-2 -29 -7 -38 -20 -37 -10 1 -20 -7 -23 -17 -4 -11 -16
-19 -28 -19 -12 0 -28 -9 -34 -19 -9 -14 -19 -18 -35 -13 -20 5 -21 3 -10 -11
7 -8 22 -15 32 -14 11 1 17 3 15 6 -3 2 28 26 68 53 98 68 116 86 97 98 -8 5
-25 10 -37 10 -18 0 -22 -6 -25 -37z"/>
<path d="M1216 1043 c4 -24 19 -51 40 -71 33 -33 43 -75 16 -64 -25 9 4 -34
41 -62 38 -29 107 -60 115 -52 3 3 -2 14 -11 24 -10 10 -17 24 -17 31 0 7 -8
11 -19 9 -21 -3 -84 59 -75 74 3 5 12 2 18 -8 7 -9 18 -14 24 -10 7 4 12 3 12
-3 0 -5 27 -8 63 -6 34 1 83 3 110 4 73 2 55 19 -20 19 -78 0 -141 10 -149 23
-3 5 -14 9 -26 9 -12 0 -22 8 -25 20 -4 15 -11 19 -24 15 -15 -5 -19 -1 -19
21 0 21 3 24 13 15 10 -8 17 -7 25 1 9 9 16 7 32 -7 13 -11 20 -14 20 -6 0 9
21 12 80 10 45 -2 84 1 90 7 10 10 -86 18 -207 17 -42 -1 -66 4 -74 13 -6 8
-18 14 -26 14 -11 0 -12 -9 -7 -37z"/>
<path d="M1730 1069 c0 -5 5 -7 10 -4 6 3 10 8 10 11 0 2 -4 4 -10 4 -5 0 -10
-5 -10 -11z"/>
<path d="M1603 1063 c-7 -2 -13 -9 -13 -14 0 -6 4 -7 10 -4 5 3 29 10 52 14
l43 9 -40 0 c-22 0 -46 -2 -52 -5z"/>
</g>
</svg>
